<?xml version="1.0" encoding="iso-8859-1"?>
<!-- Generator: Adobe Illustrator 19.1.0, SVG Export Plug-In . SVG Version: 6.00 Build 0)  -->
<svg version="1.1" id="Capa_1" xmlns="http://www.w3.org/2000/svg" xmlns:xlink="http://www.w3.org/1999/xlink" x="0px" y="0px"
	 viewBox="0 0 358.768 358.768" style="enable-background:new 0 0 358.768 358.768;" xml:space="preserve">
<g>
	<g>
		<path style="fill:#FDFFD0;" d="M249.294,65.574l-74.787,74.788h105.621C277.309,113.65,267.031,87.582,249.294,65.574z"/>
		<path style="fill:#FDFFD0;" d="M179.687,165.543l74.091,74.091c16.051-22.17,24.998-47.927,26.81-74.091H179.687z"/>
		<path style="fill:#FDFFD0;" d="M231.659,263.845l-71.295-71.294v100.975c12.8-0.876,25.271-3.431,37.158-7.554
			C209.79,280.319,221.275,272.901,231.659,263.845z"/>
		<path style="fill:#FDFFD0;" d="M127.498,187.371l-71.294,71.293c20.339,17.736,44.9,29.192,71.294,33.394V187.371z"/>
		<path style="fill:#EFCA60;" d="M281.919,32.95l-9.082,9.083c27.002,30.486,40.65,68.724,40.949,107.046
			c0.055,0.42,0.082,0.849,0.082,1.284c0,0.436-0.027,0.864-0.082,1.284c-0.323,41.43-16.251,82.761-47.783,114.306
			c-0.008,0.008-0.016,0.017-0.023,0.024c-0.008,0.008-0.017,0.016-0.024,0.023c-18.472,18.466-40.586,31.962-64.719,39.831
			c-4.919,2.057-9.618,3.269-14.234,3.926c-11.882,2.709-24.151,4.109-36.638,4.109c-40.322,0-78.419-14.5-108.332-41.03l-8.06,8.06
			l-9.646,9.647c34.656,31.235,79.031,48.321,126.035,48.321c20.495,0,40.491-3.25,59.399-9.503
			c21.558-8.852,41.484-21.757,58.818-38.364C340.867,221.738,345.892,108.275,281.919,32.95z"/>
	</g>
	<path d="M297.799,2.928c-3.906-3.904-10.236-3.904-14.143,0L2.93,283.655c-3.905,3.905-3.905,10.237,0,14.143
		c40.652,40.652,94.034,60.971,147.433,60.971c53.386,0,106.788-20.328,147.431-60.97C379.09,216.501,379.093,84.222,297.799,2.928z
		 M249.294,65.574l9.37-9.37c21.1,24.235,32.697,53.93,34.791,84.158h-13.327H174.507L249.294,65.574z M293.455,160.363
		c-2.094,30.229-13.691,59.923-34.791,84.157l-4.885-4.885l-74.091-74.091l-5.181-5.181H293.455z M160.364,192.551v-18.046
		l84.161,84.16c-13.941,12.156-29.865,21.363-47.003,27.308c-11.887,4.123-24.358,6.678-37.158,7.554V192.551z M127.498,187.371
		l12.866-12.866v119.021c-4.33-0.296-8.621-0.791-12.866-1.467c-26.394-4.202-50.955-15.658-71.294-33.394L127.498,187.371z
		 M283.65,283.656c-21.11,21.111-46.347,36.596-73.89,45.706c-18.908,6.253-38.904,9.503-59.399,9.503
		c-47.004,0-91.379-17.086-126.035-48.321l9.646-9.647l8.06-8.06c29.913,26.53,68.01,41.03,108.332,41.03
		c12.487,0,24.756-1.4,36.638-4.109c4.812-1.097,9.562-2.403,14.234-3.926c24.133-7.869,46.247-21.365,64.719-39.831
		c0.008-0.008,0.017-0.016,0.024-0.023c0.008-0.008,0.016-0.017,0.023-0.024c31.532-31.545,47.46-72.876,47.783-114.306
		c0.055-0.42,0.082-0.849,0.082-1.284c0-0.436-0.027-0.864-0.082-1.284c-0.299-38.322-13.947-76.56-40.949-107.046l9.082-9.083
		l8.623-8.623C357.072,98.238,354.777,212.53,283.65,283.656z"/>
</g>
<g>
</g>
<g>
</g>
<g>
</g>
<g>
</g>
<g>
</g>
<g>
</g>
<g>
</g>
<g>
</g>
<g>
</g>
<g>
</g>
<g>
</g>
<g>
</g>
<g>
</g>
<g>
</g>
<g>
</g>
</svg>
