<?xml version="1.0" encoding="iso-8859-1"?>
<!-- Generator: Adobe Illustrator 19.0.0, SVG Export Plug-In . SVG Version: 6.00 Build 0)  -->
<svg version="1.1" id="Layer_1" xmlns="http://www.w3.org/2000/svg" xmlns:xlink="http://www.w3.org/1999/xlink" x="0px" y="0px"
	 viewBox="0 0 502.493 502.493" style="enable-background:new 0 0 502.493 502.493;" xml:space="preserve">
<g transform="translate(1 1)">
	<path style="fill:#FCC309;" d="M430.396,160.381c29.377-75.541-47.843-123.384-47.843-123.384l-1.679,1.679l0,0
		c5.036,5.875,10.072,11.751,13.43,18.466c0,0.839,0.839,0.839,0.839,1.679c1.679,2.518,2.518,5.036,3.357,8.393
		c0,0.839,0.839,1.679,0.839,2.518c0.839,3.357,2.518,6.715,3.357,10.911c2.518,11.751,3.357,23.502,3.357,32.734
		c0,3.357,0,6.715,0,9.233c0,5.875-1.679,12.59-2.518,18.466c-2.518,9.233-5.875,17.626-10.072,26.02
		c-2.518,5.036-6.715,10.911-10.072,15.948c-1.679,2.518-4.197,5.036-5.875,7.554l-82.256,92.328l-53.718,73.023l-0.839,0.839
		c-10.911,14.269-20.984,29.377-29.377,45.325c-7.554,14.269-16.787,26.02-26.859,35.252l-0.839,0.839
		c-15.108,13.43-32.734,20.984-50.361,21.823c-1.679,0-4.197,0-5.875,0c-11.751-0.839-23.502-3.357-33.574-8.393l6.715,14.269
		c9.233,6.715,16.787,13.43,28.538,15.948c27.698,4.197,53.718-3.357,75.541-14.269c32.734-16.787,59.593-44.485,77.22-77.22
		l36.931-68.826c5.875-11.751,15.108-20.984,26.02-28.538C395.983,256.066,430.396,160.381,430.396,160.381"/>
	<path style="fill:#FD9808;" d="M379.196,38.676L379.196,38.676l1.679-1.679c0,0,77.22,47.843,47.843,123.384
		c0,0-34.413,95.685-84.774,132.616c-10.911,7.554-19.305,17.626-26.02,28.538l-36.931,68.826
		c-17.626,32.734-44.485,60.433-77.22,77.22c-21.823,10.911-47.843,18.466-75.541,14.269c-1.679,0-4.197-0.839-5.875-1.679
		c8.393,5.036,17.626,9.233,26.859,10.911c27.698,4.197,53.718-3.357,75.541-14.269c32.734-16.787,59.593-44.485,77.22-77.22
		l36.931-68.826c5.875-11.751,15.108-20.984,26.02-28.538c50.361-36.092,84.774-132.616,84.774-132.616
		c29.377-75.541-73.023-136.813-73.023-136.813L375,34.479l0,0"/>
	<path style="fill:#FCC309;" d="M404.377,47.909L404.377,47.909l1.679-1.679c0,0,77.22,47.843,47.843,123.384
		c0,0-34.413,95.685-84.774,132.616c-10.911,7.554-19.305,17.626-26.02,28.538l-36.931,68.826
		c-17.626,32.734-44.485,60.433-77.22,77.22c-21.823,10.911-47.843,18.466-75.541,14.269c-1.679,0-4.197-0.839-5.875-1.679
		c8.393,5.036,17.626,9.233,26.859,10.911c27.698,4.197,53.718-3.357,75.541-14.269c32.734-16.787,59.593-44.485,77.22-77.22
		l36.931-68.826c5.875-11.751,15.108-20.984,26.02-28.538c50.361-36.092,84.774-132.616,84.774-132.616
		c29.377-75.541-73.023-136.813-73.023-136.813l-1.679,1.679l0,0"/>
	<path style="fill:#FFDD09;" d="M358.213,15.175c-10.911-6.715-1.679,0.839-15.108,0c-34.413-0.839-103.239,1.679-130.938,49.521
		c-4.197,9.233-9.233,18.466-15.108,26.859l-61.272,105.757c-15.948,27.698-33.574,54.557-52.879,79.738
		c-15.948,20.984-36.092,57.915-29.377,104.079c6.715,47.003,24.341,67.987,71.344,71.344c31.056,1.679,64.63-20.144,84.774-57.915
		c8.393-16.787,19.305-31.895,30.216-47.003l53.718-73.023l82.256-92.328c16.787-18.466,27.698-41.967,28.538-67.148
		c0.839-12.59,0-26.859-3.357-42.807c-5.036-24.341,0.839-32.734-20.144-45.325L358.213,15.175z"/>
	<path style="fill:#FFFFFF;" d="M129.072,452.473c-47.003-3.357-64.63-24.341-71.344-71.344
		c-6.715-46.164,13.43-82.256,30.216-103.239c19.305-25.18,36.931-52.039,52.879-79.738l60.433-106.597
		c5.875-8.393,10.911-17.626,15.948-26.02c28.538-48.682,96.525-51.2,130.938-49.521c2.518,0,5.036,0,5.875-0.839
		c-9.233-4.197-18.466-7.554-28.538-7.554C290.226,5.942,222.239,8.46,194.54,57.142c-5.036,8.393-10.072,17.626-15.948,26.02
		L118.16,188.919c-15.948,27.698-33.574,54.557-52.879,79.738C48.495,289.64,28.35,326.571,35.065,372.735
		c6.715,47.003,46.164,80.577,93.167,83.934"/>
	<g>
		<path style="fill:#54C9FD;" d="M295.262,90.715c0,14.269-10.911,25.18-25.18,25.18s-25.18-10.911-25.18-25.18
			s10.911-25.18,25.18-25.18S295.262,77.286,295.262,90.715"/>
		<path style="fill:#54C9FD;" d="M278.475,90.715c0,14.269-10.911,25.18-25.18,25.18s-8.393-10.911-8.393-25.18
			s-5.875-25.18,8.393-25.18S278.475,77.286,278.475,90.715"/>
	</g>
	<path style="fill:#33A9F8;" d="M270.081,65.535c-3.357,0-5.875,0.839-8.393,1.679c10.072,3.357,16.787,12.59,16.787,23.502
		s-6.715,20.144-16.787,23.502c2.518,0.839,5.036,1.679,8.393,1.679c14.269,0,25.18-10.911,25.18-25.18
		S284.35,65.535,270.081,65.535"/>
	<g>
		<path style="fill:#54C9FD;" d="M253.295,241.797c0,14.269-10.911,25.18-25.18,25.18c-14.269,0-25.18-10.911-25.18-25.18
			c0-14.269,10.911-25.18,25.18-25.18C242.383,216.617,253.295,228.368,253.295,241.797"/>
		<path style="fill:#54C9FD;" d="M119,334.125c0,14.269-10.911,25.18-25.18,25.18s-25.18-10.911-25.18-25.18
			s10.911-25.18,25.18-25.18S119,320.696,119,334.125"/>
	</g>
	<g>
		<path style="fill:#33A9F8;" d="M228.114,216.617c-3.357,0-5.875,0.839-8.393,1.679c10.072,3.357,16.787,12.59,16.787,23.502
			s-6.715,20.144-16.787,23.502c2.518,0.839,5.036,1.679,8.393,1.679c14.269,0,25.18-10.911,25.18-25.18
			C253.295,227.529,242.383,216.617,228.114,216.617"/>
		<path style="fill:#33A9F8;" d="M93.819,308.945c-3.357,0-5.875,0.839-8.393,1.679c10.072,3.357,16.787,12.59,16.787,23.502
			s-6.715,20.144-16.787,23.502c2.518,0.839,5.036,1.679,8.393,1.679c14.269,0,25.18-10.911,25.18-25.18
			C119,320.696,108.088,308.945,93.819,308.945"/>
	</g>
	<path d="M127.393,465.063c-1.679,0-3.357,0-5.036,0c-52.039-4.197-93.167-41.128-100.721-91.489
		c-6.715-48.682,13.43-86.452,31.895-109.954c17.626-21.823,34.413-47.843,52.039-78.898l60.433-105.757
		c5.036-7.554,10.072-15.108,14.269-22.662l2.518-3.357c21.823-37.77,69.666-56.236,138.492-53.718
		c13.43,0.839,26.859,5.036,41.128,13.43l0,0c23.502,14.269,40.289,36.931,46.164,63.79c3.357,15.108,4.197,30.216,3.357,45.325
		c-1.679,26.02-12.59,51.2-31.056,72.184l-82.256,92.328l-53.718,70.505c-9.233,13.43-20.144,28.538-29.377,45.325
		C195.38,440.722,160.967,465.063,127.393,465.063z M312.049,15.175c-56.236,0-97.364,15.948-114.99,45.325l-2.518,4.197
		c-4.197,7.554-9.233,15.948-14.269,23.502l-60.433,104.918c-17.626,31.895-35.252,57.915-53.718,80.577
		c-15.948,20.984-34.413,54.557-28.538,97.364c5.875,41.967,41.128,73.862,85.613,76.38c28.538,1.679,58.754-19.305,76.38-52.879
		c9.233-17.626,20.984-34.413,31.056-47.843l53.718-73.023l83.095-92.328c15.948-17.626,25.18-39.449,26.859-62.111
		c0.839-12.59,0-26.859-3.357-40.289c-4.197-21.823-18.466-41.128-38.61-52.879l0,0c-10.911-6.715-22.662-10.072-32.734-10.911
		C315.406,15.175,315.406,15.175,312.049,15.175z"/>
	<path d="M166.842,501.155c-5.875,0-11.751-0.839-17.626-1.679c-11.751-1.679-24.341-7.554-35.252-15.948l-0.839-0.839
		l-28.538-29.377c-2.518-2.518-3.357-7.554-0.839-10.911c2.518-3.357,5.875-2.518,9.233-1.679
		c10.072,4.197,20.984,5.036,31.895,5.875c1.679,0,3.357,0,5.036,0c15.108,0,31.056-7.554,45.325-19.305l0.839-0.839
		c10.072-9.233,18.466-20.144,26.02-33.574c9.233-17.626,20.984-34.413,30.216-47.003l0.839-0.839l53.718-73.023l83.095-92.328
		c1.679-2.518,4.197-4.197,5.875-6.715c3.357-4.197,6.715-9.233,9.233-14.269c4.197-7.554,7.554-15.948,9.233-23.502
		c1.679-5.875,2.518-10.911,2.518-16.787c0-2.518,0-5.875,0-9.233c0-10.072-0.839-20.984-3.357-31.056
		c-0.839-2.518-1.679-5.875-2.518-10.072l-3.357-0.839c-0.839-2.518-2.518-5.036-3.357-7.554l-0.839-1.679
		c-3.357-5.875-7.554-11.751-12.59-16.787c-2.518-3.357-3.357-7.554,0-10.911l1.679-1.679c1.679-4.197,5.875-4.197,9.233-1.679
		c4.197,2.518,109.115,64.63,77.22,146.046c-1.679,5.036-36.092,99.043-88.131,135.974c-10.072,7.554-18.466,15.948-23.502,26.02
		l-36.931,68.826c-19.305,35.252-47.003,63.79-80.577,80.577C207.97,496.119,186.986,501.155,166.842,501.155z M124.036,470.938
		c9.233,6.715,18.466,10.911,27.698,11.751c21.823,3.357,46.164-0.839,70.505-13.43c31.056-15.948,56.236-41.128,73.862-73.862
		l36.931-68.826c6.715-12.59,15.948-22.662,28.538-31.895c47.843-34.413,81.416-127.58,82.256-128.42l0,0
		c16.787-41.967-13.43-79.738-39.449-103.239l0,0c1.679,4.197,2.518,8.393,3.357,11.751c2.518,11.751,4.197,23.502,4.197,34.413
		c0,3.357,0,6.715,0,10.072c0,6.715-1.679,13.43-3.357,20.144c-2.518,9.233-5.875,19.305-10.911,27.698
		c-3.357,5.875-6.715,11.751-10.911,16.787c-1.679,2.518-4.197,5.036-6.715,7.554l-82.256,92.328l-52.879,73.023l-0.839,0.839
		c-9.233,12.59-20.144,27.698-28.538,44.485c-7.554,15.108-17.626,27.698-29.377,37.77l-0.839,0.839
		c-16.787,15.108-36.931,23.502-56.236,23.502c-2.518,0-4.197,0-6.715,0c-1.679,0-4.197,0-5.875-0.839L124.036,470.938z"/>
	<path d="M270.081,124.289c-18.466,0-33.574-15.108-33.574-33.574s15.108-33.574,33.574-33.574s33.574,15.108,33.574,33.574
		S288.547,124.289,270.081,124.289z M270.081,73.929c-9.233,0-16.787,7.554-16.787,16.787s7.554,16.787,16.787,16.787
		s16.787-7.554,16.787-16.787S279.314,73.929,270.081,73.929z"/>
	<path d="M228.114,275.371c-18.466,0-33.574-15.108-33.574-33.574s15.108-33.574,33.574-33.574s33.574,15.108,33.574,33.574
		S246.58,275.371,228.114,275.371z M228.114,225.011c-9.233,0-16.787,7.554-16.787,16.787c0,9.233,7.554,16.787,16.787,16.787
		s16.787-7.554,16.787-16.787C244.901,232.565,237.347,225.011,228.114,225.011z"/>
	<path d="M93.819,367.699c-18.466,0-33.574-15.108-33.574-33.574s15.108-33.574,33.574-33.574s33.574,15.108,33.574,33.574
		S112.285,367.699,93.819,367.699z M93.819,317.338c-9.233,0-16.787,7.554-16.787,16.787c0,9.233,7.554,16.787,16.787,16.787
		s16.787-7.554,16.787-16.787C110.606,324.893,103.052,317.338,93.819,317.338z"/>
</g>
<g>
</g>
<g>
</g>
<g>
</g>
<g>
</g>
<g>
</g>
<g>
</g>
<g>
</g>
<g>
</g>
<g>
</g>
<g>
</g>
<g>
</g>
<g>
</g>
<g>
</g>
<g>
</g>
<g>
</g>
</svg>
